<svg xmlns="http://www.w3.org/2000/svg" width="24" height="26" fill="none">
<path d="M22.68.691H1.32c-.35 0-.686.145-.933.403A1.405 1.405 0 000 2.066v22.252c0 .18.034.36.1.526.067.167.164.319.287.446a1.274 1.274 0 00.933.403h11.496v-9.688h-3.12v-3.75h3.12V9.441c-.065-.66.01-1.328.22-1.955a4.584 4.584 0 01.99-1.675 4.357 4.357 0 011.577-1.083 4.208 4.208 0 011.869-.288c.934-.006 1.867.044 2.796.15v3.376H18.36c-1.512 0-1.8.75-1.8 1.837v2.413h3.6l-.468 3.75H16.56v9.726h6.12c.173 0 .345-.035.505-.105.16-.069.306-.17.428-.298.123-.127.22-.279.287-.446.066-.167.1-.345.1-.526V2.066c0-.18-.034-.36-.1-.526a1.38 1.38 0 00-.287-.446 1.318 1.318 0 00-.428-.298A1.274 1.274 0 0022.68.69z" fill="#fff"/>
</svg>