<svg xmlns="http://www.w3.org/2000/svg" width="24" height="26" fill="none">
<path d="M12 .691c-2.85 0-5.606 1.083-7.776 3.055C2.054 5.72.611 8.451.155 11.456c-.456 3.004.103 6.083 1.578 8.687 1.475 2.604 3.769 4.563 6.472 5.526.6.112.825-.273.825-.61 0-.304-.015-1.313-.015-2.386-3.015.592-3.795-.785-4.035-1.506a4.66 4.66 0 00-1.23-1.81c-.42-.241-1.02-.834-.015-.85.384.044.752.187 1.073.416.321.229.586.537.772.898a2.7 2.7 0 00.65.816c.264.223.567.389.892.487a2.407 2.407 0 001.953-.246c.052-.651.324-1.26.765-1.714-2.67-.32-5.46-1.426-5.46-6.329a5.186 5.186 0 011.23-3.444 4.897 4.897 0 01.12-3.397s1.005-.336 3.3 1.314a10.618 10.618 0 016 0c2.295-1.666 3.3-1.314 3.3-1.314a4.897 4.897 0 01.12 3.397c.81.937 1.25 2.17 1.23 3.444 0 4.919-2.805 6.008-5.475 6.329.286.31.507.682.647 1.091.14.41.195.846.163 1.28 0 1.714-.015 3.092-.015 3.525 0 .336.225.737.825.609 2.698-.97 4.986-2.934 6.455-5.54 1.468-2.605 2.022-5.683 1.563-8.684-.46-3.001-1.903-5.73-4.073-7.7C17.601 1.775 14.847.693 12 .69z" fill="#fff"/>
</svg>