<svg xmlns="http://www.w3.org/2000/svg" width="24" height="26" fill="none">
<path d="M12 10.092c-.589 0-1.164.182-1.653.522-.49.34-.871.825-1.096 1.392a3.22 3.22 0 00-.17 1.79c.115.602.398 1.155.815 1.588.416.434.946.73 1.523.849.578.12 1.176.058 1.72-.177a3.006 3.006 0 001.336-1.142 3.215 3.215 0 00.275-2.909A3.114 3.114 0 0014.103 11a2.973 2.973 0 00-.965-.672A2.873 2.873 0 0012 10.092zm11.916-3.063a8.467 8.467 0 00-.504-2.825 5.028 5.028 0 00-1.093-1.761 4.784 4.784 0 00-1.691-1.14A7.559 7.559 0 0017.916.78C16.368.69 15.912.69 12 .69c-3.912 0-4.368 0-5.916.088a7.559 7.559 0 00-2.712.525c-.634.25-1.21.639-1.69 1.139s-.853 1.1-1.094 1.76A8.466 8.466 0 00.084 7.03C0 8.642 0 9.117 0 13.192s0 4.55.084 6.163c.013.969.183 1.928.504 2.838.24.658.612 1.255 1.092 1.75a4.652 4.652 0 001.692 1.137 7.56 7.56 0 002.712.526c1.548.087 2.004.087 5.916.087 3.912 0 4.368 0 5.916-.087a7.56 7.56 0 002.712-.526 4.652 4.652 0 001.692-1.137 4.952 4.952 0 001.092-1.75 8.558 8.558 0 00.504-2.838C24 17.742 24 17.267 24 13.192s0-4.55-.084-6.163zm-3.048 10a7.418 7.418 0 01-.468 2.251c-.233.6-.58 1.144-1.018 1.602-.44.457-.962.818-1.538 1.06a6.633 6.633 0 01-2.172.438H8.328a6.633 6.633 0 01-2.172-.437 4.202 4.202 0 01-1.572-1.075A4.412 4.412 0 013.6 19.28a7.118 7.118 0 01-.408-2.263v-3.825-3.825c.013-.773.15-1.538.408-2.263.221-.62.574-1.18 1.032-1.638.432-.45.952-.8 1.524-1.025a6.634 6.634 0 012.172-.437h7.344c.742.023 1.475.17 2.172.437.595.23 1.133.598 1.572 1.075.435.449.77.99.984 1.588.256.726.398 1.49.42 2.263v3.825c0 2.575.084 2.838.048 3.825v.013zm-1.92-9.3a2.992 2.992 0 00-.66-1.075 2.845 2.845 0 00-1.032-.688 4.625 4.625 0 00-1.656-.275H8.4a4.63 4.63 0 00-1.656.325 2.84 2.84 0 00-1.022.66c-.291.294-.52.648-.67 1.04A5.543 5.543 0 004.8 9.443v7.5c.012.59.117 1.172.312 1.726.143.403.368.77.66 1.074.292.305.644.54 1.032.688.512.196 1.05.306 1.596.325h7.2a4.632 4.632 0 001.656-.325c.388-.149.74-.383 1.032-.688.292-.304.517-.67.66-1.075.2-.55.306-1.135.312-1.725v-3.75-3.75c0-.59-.106-1.176-.312-1.725v.012zM12 17.968a4.414 4.414 0 01-1.752-.364 4.564 4.564 0 01-1.485-1.036 4.782 4.782 0 01-.99-1.55 4.937 4.937 0 01-.345-1.826c0-.945.27-1.869.773-2.654a4.63 4.63 0 012.06-1.759 4.413 4.413 0 012.65-.27 4.53 4.53 0 012.347 1.31 4.84 4.84 0 011.251 2.45 4.96 4.96 0 01-.265 2.76 4.737 4.737 0 01-1.694 2.14 4.454 4.454 0 01-2.55.799zm4.8-8.614c-.265-.029-.51-.16-.69-.366a1.152 1.152 0 01-.276-.753c0-.277.098-.546.277-.752.178-.207.424-.337.689-.366.265.029.51.16.69.366.178.206.276.474.276.752s-.098.546-.277.753a1.066 1.066 0 01-.689.366z" fill="#fff"/>
</svg>