<svg xmlns="http://www.w3.org/2000/svg" width="24" height="26" fill="none">
<path d="M22.225.92H1.775c-.23-.002-.458.041-.672.13a1.745 1.745 0 00-.573.384 1.816 1.816 0 00-.388.583c-.09.218-.139.453-.142.691v21.427c.003.238.052.473.142.692.091.218.223.416.388.582.165.166.36.297.573.385.214.088.442.132.672.129h20.45c.23.003.458-.04.672-.129.214-.088.409-.219.573-.385.165-.166.297-.364.388-.582.09-.219.139-.454.142-.692V2.708a1.868 1.868 0 00-.142-.691 1.816 1.816 0 00-.388-.583 1.746 1.746 0 00-.573-.385 1.698 1.698 0 00-.672-.128zM7.28 21.848H3.658v-11.25H7.28v11.25zM5.469 9.021c-.5 0-.979-.205-1.332-.57a1.986 1.986 0 01-.551-1.38c0-.517.198-1.013.551-1.379a1.851 1.851 0 011.332-.57c.265-.032.534-.005.788.079s.489.222.688.406c.199.184.358.41.467.662a2.022 2.022 0 010 1.604 1.96 1.96 0 01-.467.662 1.88 1.88 0 01-.688.407 1.834 1.834 0 01-.788.08zm14.873 12.826H16.72V15.81c0-1.512-.519-2.5-1.835-2.5a1.946 1.946 0 00-1.136.38 2.056 2.056 0 00-.723.983 2.581 2.581 0 00-.12.912v6.25H9.283v-11.25h3.621v1.588a3.686 3.686 0 011.385-1.409 3.522 3.522 0 011.887-.466c2.415 0 4.165 1.612 4.165 5.075v6.475z" fill="#fff"/>
</svg>