<svg xmlns="http://www.w3.org/2000/svg" width="24" height="25" fill="none">
<path d="M12 1.563c-2.187.002-4.284.909-5.83 2.52-1.547 1.611-2.417 3.796-2.42 6.074a8.743 8.743 0 001.662 5.157s.225.308.262.353L12 23.439l6.33-7.776c.032-.041.258-.35.258-.35v-.002a8.74 8.74 0 001.662-5.154c-.003-2.278-.873-4.463-2.42-6.074-1.546-1.611-3.643-2.518-5.83-2.52zm0 11.72a2.915 2.915 0 01-1.667-.527 3.101 3.101 0 01-1.105-1.403 3.247 3.247 0 01-.17-1.806 3.168 3.168 0 01.82-1.6c.42-.437.955-.735 1.537-.855a2.889 2.889 0 011.733.178 3.03 3.03 0 011.346 1.15c.33.515.506 1.119.506 1.737a3.196 3.196 0 01-.88 2.209 2.944 2.944 0 01-2.12.916z" fill="#fff" />
</svg>