<svg xmlns="http://www.w3.org/2000/svg" width="24" height="26" viewBox="0 0 24 26" fill="none">
<path d="M20 12.3789H22C22 7.03469 18.127 3.00415 12.99 3.00415V5.08766C17.052 5.08766 20 8.15354 20 12.3789Z" fill="white" />
<path d="M13 9.25468C15.103 9.25468 16 10.1891 16 12.3799H18C18 9.02028 16.225 7.17117 13 7.17117V9.25468ZM16.422 14.9249C16.2299 14.743 15.9774 14.646 15.7178 14.6543C15.4583 14.6627 15.212 14.7758 15.031 14.9697L12.638 17.5335C12.062 17.4189 10.904 17.0428 9.71204 15.8042C8.52004 14.5614 8.15904 13.3519 8.05204 12.756L10.511 10.2621C10.6975 10.0736 10.8062 9.81704 10.8142 9.54658C10.8222 9.27613 10.7289 9.01303 10.554 8.81297L6.85904 4.58033C6.68408 4.37964 6.44092 4.25791 6.18119 4.24099C5.92146 4.22406 5.66564 4.31328 5.46804 4.48969L3.29804 6.4284C3.12515 6.60916 3.02196 6.84974 3.00804 7.1045C2.99304 7.36493 2.70704 13.5342 7.29904 18.32C11.305 22.4922 16.323 22.7975 17.705 22.7975C17.907 22.7975 18.031 22.7912 18.064 22.7891C18.3086 22.7749 18.5394 22.6669 18.712 22.486L20.572 20.2243C20.7415 20.0186 20.8273 19.7522 20.8113 19.4816C20.7952 19.2111 20.6785 18.9577 20.486 18.7753L16.422 14.9249Z" fill="white" />
</svg>