<svg width="35" height="35" viewBox="0 0 35 35" fill="none" xmlns="http://www.w3.org/2000/svg">
<path id="Vector" d="M17.6147 0.790894C8.18404 0.790894 0.536143 8.63191 0.536143 18.3045C0.53229 21.9755 1.65816 25.5548 3.75465 28.5368C5.85113 31.5187 8.8122 33.7523 12.2194 34.922C13.0734 35.0834 13.3851 34.5426 13.3851 34.0782C13.3851 33.6617 13.3702 32.5605 13.3616 31.0996C8.61106 32.1572 7.60757 28.7512 7.60757 28.7512C6.83253 26.7277 5.71161 26.1892 5.71161 26.1892C4.15939 25.1033 5.8269 25.1251 5.8269 25.1251C7.54138 25.2494 8.44239 26.9305 8.44239 26.9305C9.96684 29.606 12.4414 28.8341 13.415 28.3849C13.5687 27.2532 14.0107 26.4814 14.4996 26.0431C10.7077 25.6004 6.71937 24.0981 6.71937 17.3887C6.71937 15.4765 7.38552 13.913 8.47868 12.6876C8.30147 12.245 7.71646 10.4635 8.64522 8.05409C8.64522 8.05409 10.08 7.5831 13.3424 9.84862C14.7361 9.45965 16.1742 9.26167 17.619 9.25989C19.0639 9.26282 20.5019 9.46153 21.8956 9.85081C25.1559 7.58528 26.5885 8.05627 26.5885 8.05627C27.5194 10.4679 26.9344 12.2472 26.7593 12.6898C27.8546 13.9152 28.5144 15.4786 28.5144 17.3909C28.5144 24.1177 24.5218 25.5983 20.717 26.0322C21.3298 26.5729 21.8764 27.6414 21.8764 29.2746C21.8764 31.6164 21.855 33.5047 21.855 34.0782C21.855 34.547 22.1625 35.0921 23.0293 34.9198C26.4332 33.7474 29.3906 31.5129 31.4842 28.5317C33.5777 25.5505 34.7017 21.9732 34.6976 18.3045C34.6976 8.63191 27.0497 0.790894 17.6147 0.790894Z" fill="white"/>
</svg>
