<svg width="25" height="25" viewBox="0 0 25 25" fill="none" xmlns="http://www.w3.org/2000/svg">
<g id="ix:about-filled">
<path id="Vector" fill-rule="evenodd" clip-rule="evenodd" d="M12.2069 2.3512C17.6503 2.3512 22.063 6.82832 22.063 12.3512C22.063 17.874 17.6503 22.3512 12.2069 22.3512C6.7636 22.3512 2.35087 17.874 2.35087 12.3512C2.35087 6.82832 6.7636 2.3512 12.2069 2.3512ZM13.1947 11.3512H11.2235V17.3512H13.1947V11.3512ZM12.2169 7.10118C11.4983 7.10118 10.9771 7.62712 10.9771 8.33732C10.9771 9.07626 11.4846 9.60121 12.2169 9.60121C12.9208 9.60121 13.4411 9.07621 13.4411 8.3512C13.4411 7.62716 12.9208 7.10118 12.2169 7.10118Z" fill="white" />
</g>
</svg>
