<svg width="176" height="176" viewBox="0 0 176 176" fill="none" xmlns="http://www.w3.org/2000/svg">
<g clip-path="url(#clip0_133_1346)">
<rect y="33.4888" width="145.543" height="145.543" rx="72.7717" transform="rotate(-13.3027 0 33.4888)" fill="black"/>
<g filter="url(#filter0_if_133_1346)">
<rect x="0.395996" y="33.2822" width="145.171" height="145.516" rx="72.5853" transform="rotate(-13.3 0.395996 33.2822)" fill="url(#paint0_linear_133_1346)" fill-opacity="0.8"/>
<rect x="0.696803" y="33.468" width="144.671" height="145.016" rx="72.3353" transform="rotate(-13.3 0.696803 33.468)" stroke="url(#paint1_angular_133_1346)" stroke-width="0.5"/>
</g>
<g opacity="0.5">
<mask id="mask0_133_1346" style="mask-type:alpha" maskUnits="userSpaceOnUse" x="15" y="14" width="146" height="146">
<ellipse cx="87.585" cy="86.76" rx="72.585" ry="72.76" fill="#C4C4C4"/>
</mask>
<g mask="url(#mask0_133_1346)">
<g filter="url(#filter1_i_133_1346)">
<ellipse cx="87.585" cy="86.76" rx="72.585" ry="72.76" fill="#400869" fill-opacity="0.8"/>
</g>
<g filter="url(#filter2_f_133_1346)">
<path d="M73.2993 158.831C36.9666 154.634 8.05609 119.391 12.8137 86.6801C32.2459 95.815 58.2271 101.425 83.1337 102.673C103.964 103.717 144.081 98.5689 160.565 97.0912C163.185 96.8564 154.169 121.813 148.437 130.691C142.193 140.362 116.508 163.824 73.2993 158.831Z" fill="url(#paint2_linear_133_1346)"/>
</g>
<g filter="url(#filter3_f_133_1346)">
<path d="M95.4159 114.963C74.1117 120.51 34.0443 106.784 22.3665 92.7104C-9.14595 54.7337 1.34527 92.0821 10.3373 131.951C19.8214 174.001 84.6946 178.059 117.204 169.392C149.714 160.725 183.607 95.5489 171.502 56.7206C159.398 17.8922 112.362 -1.52193 63.252 6.10506C14.1416 13.7321 9.29974 37.9998 10.3373 52.5604C11.3748 67.121 12.2008 97.8096 22.3665 68.6676C34.999 32.4539 63.0814 18.8491 85.9073 18.8491C115.306 18.8491 136.824 31.0662 136.824 56.7206C136.824 85.5945 122.046 108.029 95.4159 114.963Z" fill="#858585" fill-opacity="0.38"/>
</g>
<g filter="url(#filter4_f_133_1346)">
<path d="M95.4873 149.265C64.3678 154.093 25.301 129.886 15.5762 116.425C26.2273 147.526 65.7342 164.842 90.2779 164.842C125.426 164.842 162.879 127.644 161.026 93.2929C159.174 58.9418 153.694 49.212 149.055 41.7727C153.686 49.2 155.832 84.1083 152.127 98.4987C148.423 112.889 134.387 143.23 95.4873 149.265Z" fill="url(#paint3_linear_133_1346)"/>
</g>
<g filter="url(#filter5_f_133_1346)">
<path d="M32.1248 60.9097C27.7136 74.0523 23.7997 89.7233 27.1542 102.2C31.5681 67.4238 62.6262 46.8599 77.8769 38.6411C77.7111 36.8564 77.6013 31.707 74.0508 28.0909C64.713 30.4399 37.6387 44.4816 32.1248 60.9097Z" fill="url(#paint4_linear_133_1346)"/>
</g>
<g filter="url(#filter6_f_133_1346)">
<path d="M61 45.2051C60.0668 43.3642 53.069 36.7079 50.8676 36.054C49.4661 35.6376 47.0843 37.7132 44.7869 39.4507C41.7732 41.73 35.5125 50.1255 33.5892 54.7774C32.596 57.1797 32.7483 57.741 34.8995 59.6402C38.1072 62.4723 44.0854 65.4694 45.2518 64.9384C46.1753 63.4044 48.8387 59.3805 52.1049 55.5572C56.1876 50.7782 58.6671 47.1522 61 45.2051Z" fill="white"/>
</g>
<g filter="url(#filter7_f_133_1346)">
<path d="M135.194 71.1963C134.179 63.5168 130.527 56.2296 130.057 55.1642C129.586 54.0988 132.195 46.4854 132.438 44.516C132.681 42.5465 136.337 46.5565 138.945 50.7772C141.552 54.9963 147.235 66.3322 146.992 72.5221C146.749 78.7119 137.573 87.5371 136.115 86.9744C136.115 82.236 136.139 78.3418 135.194 71.1963Z" fill="white"/>
</g>
<g filter="url(#filter8_f_133_1346)">
<path d="M111.903 36.1317L90.3428 28.3734C96.2396 27.5422 106.855 26.6603 109.951 27.3253C113.047 27.9903 123.144 34.7463 126.829 38.3483L111.903 36.1317Z" fill="url(#paint5_linear_133_1346)"/>
</g>
</g>
</g>
<g clip-path="url(#clip1_133_1346)">
<mask id="mask1_133_1346" style="mask-type:alpha" maskUnits="userSpaceOnUse" x="31" y="18" width="107" height="107">
<path d="M116.735 17.9999L31 38.271L51.2711 124.006L137.006 103.735L116.735 17.9999Z" fill="#D9D9D9"/>
</mask>
<g mask="url(#mask1_133_1346)">
<path fill-rule="evenodd" clip-rule="evenodd" d="M84.0648 45.8525C80.5878 42.3319 74.6172 43.7436 73.085 48.4485L53.4012 108.894C51.8055 113.794 56.1862 118.552 61.2014 117.367L125.555 102.151C130.57 100.965 132.355 94.7486 128.734 91.0819L84.0648 45.8525ZM88.2769 61.5285L76.3396 64.351L80.0304 79.9607L72.6843 81.6976L78.6549 106.949L86.0009 105.213L86.0011 105.213L97.9383 102.391L88.2769 61.5285ZM87.9173 53.8567L73.2253 57.3304L78.3096 62.4306L85.6555 60.6938L87.9173 53.8567Z" fill="#3F80FF"/>
</g>
<rect opacity="0.8" x="73.0654" y="81.5974" width="7.18046" height="26.0944" transform="rotate(-12.8545 73.0654 81.5974)" fill="white"/>
<rect opacity="0.8" x="76.6738" y="64.4532" width="12.076" height="42.1026" transform="rotate(-12.8545 76.6738 64.4532)" fill="white"/>
<mask id="mask2_133_1346" style="mask-type:alpha" maskUnits="userSpaceOnUse" x="31" y="17" width="107" height="108">
<path d="M116.511 17.9999L31 39.2019L52.202 124.713L137.713 103.511L116.511 17.9999Z" fill="#D9D9D9"/>
</mask>
<g mask="url(#mask2_133_1346)">
<path d="M73.1941 48.922C74.675 44.2006 80.6301 42.7241 84.1452 46.2067L129.304 90.9488C132.965 94.576 131.247 100.812 126.245 102.052L62.0599 117.966C57.0579 119.207 52.6256 114.496 54.168 109.578L73.1941 48.922Z" fill="#3F80FF"/>
<path d="M76.6213 64.7882L88.5274 61.8361L98.6326 102.592L86.7265 105.544L76.6213 64.7882Z" fill="white"/>
<path d="M73.1549 82.174L85.0609 79.2219L91.3057 104.408L79.3996 107.36L73.1549 82.174Z" fill="white"/>
<path d="M73.4309 57.802L88.0845 54.1687L85.8971 61.0301L78.5704 62.8467L73.4309 57.802Z" fill="white"/>
</g>
</g>
<path d="M58.3119 133.317L52.9011 134.597L52.6178 137.397L49.7567 138.073L51.4253 123.313L54.5978 122.563L62.6998 135.013L59.8192 135.694L58.3119 133.317ZM57.0569 131.312L53.7473 126.094L53.1253 132.242L57.0569 131.312ZM65.0694 124.711C65.3032 124.136 65.6867 123.613 66.2198 123.145C66.7629 122.66 67.4302 122.324 68.2217 122.137C69.1429 121.919 70.0271 121.95 70.874 122.229C71.734 122.505 72.4778 123.015 73.1054 123.757C73.7429 124.483 74.1921 125.397 74.4528 126.5C74.7136 127.603 74.7247 128.635 74.486 129.596C74.2572 130.541 73.8217 131.335 73.1796 131.98C72.5504 132.622 71.7752 133.052 70.854 133.27C70.0625 133.457 69.3234 133.461 68.6369 133.281C67.9633 133.097 67.3801 132.804 66.8872 132.4L68.4657 139.075L65.7408 139.72L61.9764 123.799L64.7013 123.154L65.0694 124.711ZM71.6696 127.158C71.5162 126.51 71.248 125.984 70.8651 125.581C70.4921 125.163 70.0558 124.882 69.5564 124.74C69.0699 124.595 68.5736 124.582 68.0676 124.701C67.5745 124.818 67.138 125.058 66.7582 125.422C66.3883 125.77 66.1239 126.216 65.9649 126.76C65.8189 127.302 65.8226 127.897 65.976 128.546C66.1294 129.195 66.3926 129.728 66.7657 130.147C67.1517 130.563 67.5894 130.85 68.079 131.008C68.5784 131.15 69.0747 131.163 69.5678 131.046C70.0738 130.927 70.5103 130.687 70.8771 130.326C71.2569 129.962 71.5198 129.509 71.6658 128.968C71.8248 128.423 71.826 127.82 71.6696 127.158ZM81.1058 119.111C82.3904 118.808 83.5251 118.971 84.5099 119.601C85.4916 120.219 86.1543 121.254 86.4979 122.707L87.9935 129.033L85.2687 129.677L83.8605 123.721C83.658 122.865 83.289 122.26 82.7534 121.907C82.2147 121.541 81.5756 121.446 80.836 121.621C80.0834 121.799 79.5418 122.173 79.2111 122.745C78.8902 123.3 78.8311 124.006 79.0336 124.862L80.4417 130.818L77.7169 131.463L75.1674 120.68L77.8923 120.036L78.2098 121.379C78.4627 120.825 78.8374 120.353 79.334 119.962C79.8405 119.554 80.4311 119.271 81.1058 119.111ZM88.6001 123.155C88.3424 122.065 88.3279 121.048 88.5567 120.104C88.7985 119.156 89.2355 118.367 89.8677 117.738C90.5129 117.106 91.2961 116.681 92.2174 116.464C93.0219 116.273 93.7609 116.27 94.4345 116.453C95.1211 116.633 95.7043 116.927 96.1842 117.334L95.8206 115.797L98.565 115.148L101.114 125.93L98.3701 126.579L97.9973 125.003C97.7666 125.592 97.3798 126.128 96.8367 126.613C96.3035 127.082 95.6347 127.411 94.8302 127.601C93.9219 127.816 93.0363 127.779 92.1733 127.49C91.3232 127.197 90.5779 126.682 89.9373 125.943C89.3066 125.187 88.8609 124.258 88.6001 123.155ZM97.0954 121.188C96.9389 120.526 96.6757 119.992 96.3057 119.587C95.9327 119.168 95.4964 118.887 94.997 118.745C94.4945 118.59 93.9902 118.572 93.4841 118.692C92.9781 118.812 92.5401 119.045 92.1702 119.393C91.8003 119.741 91.5359 120.187 91.3769 120.731C91.2278 121.26 91.23 121.849 91.3834 122.497C91.5368 123.146 91.8015 123.686 92.1776 124.118C92.5636 124.534 93.0014 124.821 93.4909 124.979C93.9935 125.134 94.4913 125.154 94.9843 125.037C95.4904 124.917 95.9349 124.682 96.3177 124.331C96.6975 123.967 96.962 123.521 97.1111 122.993C97.257 122.451 97.2518 121.85 97.0954 121.188ZM103.288 111.071L106.501 124.657L103.776 125.301L100.564 111.716L103.288 111.071ZM112.582 111.669C113.866 111.365 115.001 111.529 115.986 112.159C116.968 112.776 117.63 113.812 117.974 115.265L119.469 121.591L116.745 122.235L115.336 116.279C115.134 115.423 114.765 114.818 114.229 114.465C113.691 114.099 113.052 114.004 112.312 114.179C111.559 114.357 111.018 114.731 110.687 115.303C110.366 115.858 110.307 116.564 110.509 117.42L111.918 123.376L109.193 124.02L106.643 113.238L109.368 112.593L109.686 113.936C109.939 113.383 110.313 112.911 110.81 112.52C111.316 112.112 111.907 111.829 112.582 111.669ZM126.228 120.177C125.346 120.386 124.518 120.418 123.743 120.272C122.966 120.113 122.305 119.81 121.761 119.363C121.23 118.914 120.867 118.362 120.671 117.71L123.416 117.061C123.566 117.464 123.848 117.76 124.263 117.95C124.691 118.136 125.171 118.167 125.703 118.041C126.222 117.918 126.599 117.719 126.836 117.444C127.085 117.166 127.171 116.865 127.095 116.541C127.012 116.19 126.769 115.974 126.366 115.891C125.972 115.792 125.362 115.731 124.534 115.707C123.684 115.703 122.974 115.658 122.406 115.573C121.851 115.485 121.335 115.272 120.857 114.933C120.393 114.59 120.075 114.056 119.903 113.329C119.762 112.732 119.802 112.147 120.022 111.575C120.256 110.999 120.657 110.493 121.225 110.057C121.807 109.618 122.532 109.296 123.401 109.09C124.686 108.787 125.788 108.869 126.707 109.337C127.623 109.791 128.248 110.554 128.584 111.626L125.976 112.243C125.836 111.824 125.574 111.529 125.191 111.359C124.819 111.174 124.366 111.143 123.834 111.269C123.341 111.386 122.98 111.567 122.75 111.813C122.534 112.056 122.464 112.34 122.541 112.664C122.627 113.028 122.874 113.264 123.283 113.372C123.69 113.468 124.299 113.523 125.11 113.537C125.935 113.547 126.625 113.596 127.18 113.684C127.735 113.772 128.246 113.994 128.714 114.349C129.191 114.688 129.521 115.213 129.703 115.924C129.85 116.547 129.807 117.146 129.573 117.722C129.352 118.295 128.951 118.801 128.37 119.24C127.799 119.662 127.085 119.975 126.228 120.177ZM133.819 109.176L135.052 114.392C135.138 114.755 135.285 115.001 135.494 115.13C135.712 115.243 136.029 115.25 136.444 115.152L137.71 114.853L138.253 117.149L136.54 117.554C134.243 118.097 132.831 117.253 132.303 115.021L131.075 109.825L129.79 110.128L129.261 107.89L130.545 107.586L129.915 104.92L132.659 104.271L133.29 106.937L135.703 106.367L136.232 108.605L133.819 109.176ZM138.741 104.292C138.261 104.406 137.824 104.351 137.429 104.13C137.044 103.892 136.797 103.546 136.69 103.092C136.583 102.638 136.649 102.225 136.89 101.853C137.141 101.464 137.506 101.214 137.987 101.1C138.467 100.987 138.899 101.049 139.284 101.286C139.679 101.508 139.93 101.846 140.038 102.3C140.145 102.754 140.073 103.176 139.823 103.564C139.582 103.936 139.221 104.179 138.741 104.292ZM140.388 105.259L142.937 116.042L140.213 116.686L137.663 105.903L140.388 105.259Z" fill="#F3F4F6"/>
</g>
<defs>
<filter id="filter0_if_133_1346" x="10.1685" y="9.63013" width="155.208" height="155.521" filterUnits="userSpaceOnUse" color-interpolation-filters="sRGB">
<feFlood flood-opacity="0" result="BackgroundImageFix"/>
<feBlend mode="normal" in="SourceGraphic" in2="BackgroundImageFix" result="shape"/>
<feColorMatrix in="SourceAlpha" type="matrix" values="0 0 0 0 0 0 0 0 0 0 0 0 0 0 0 0 0 0 127 0" result="hardAlpha"/>
<feMorphology radius="1" operator="erode" in="SourceAlpha" result="effect1_innerShadow_133_1346"/>
<feOffset dx="2" dy="2"/>
<feGaussianBlur stdDeviation="0.5"/>
<feComposite in2="hardAlpha" operator="arithmetic" k2="-1" k3="1"/>
<feColorMatrix type="matrix" values="0 0 0 0 0.939296 0 0 0 0 0.671069 0 0 0 0 0.974722 0 0 0 0.25 0"/>
<feBlend mode="normal" in2="shape" result="effect1_innerShadow_133_1346"/>
<feGaussianBlur stdDeviation="2.5" result="effect2_foregroundBlur_133_1346"/>
</filter>
<filter id="filter1_i_133_1346" x="15" y="6" width="145.17" height="153.52" filterUnits="userSpaceOnUse" color-interpolation-filters="sRGB">
<feFlood flood-opacity="0" result="BackgroundImageFix"/>
<feBlend mode="normal" in="SourceGraphic" in2="BackgroundImageFix" result="shape"/>
<feColorMatrix in="SourceAlpha" type="matrix" values="0 0 0 0 0 0 0 0 0 0 0 0 0 0 0 0 0 0 127 0" result="hardAlpha"/>
<feOffset dy="-8"/>
<feGaussianBlur stdDeviation="7"/>
<feComposite in2="hardAlpha" operator="arithmetic" k2="-1" k3="1"/>
<feColorMatrix type="matrix" values="0 0 0 0 0.779167 0 0 0 0 0.779167 0 0 0 0 0.779167 0 0 0 0.3 0"/>
<feBlend mode="normal" in2="shape" result="effect1_innerShadow_133_1346"/>
</filter>
<filter id="filter2_f_133_1346" x="10.2998" y="84.6801" width="152.732" height="76.8401" filterUnits="userSpaceOnUse" color-interpolation-filters="sRGB">
<feFlood flood-opacity="0" result="BackgroundImageFix"/>
<feBlend mode="normal" in="SourceGraphic" in2="BackgroundImageFix" result="shape"/>
<feGaussianBlur stdDeviation="1" result="effect1_foregroundBlur_133_1346"/>
</filter>
<filter id="filter3_f_133_1346" x="-29.8428" y="-26.5304" width="234.855" height="230.662" filterUnits="userSpaceOnUse" color-interpolation-filters="sRGB">
<feFlood flood-opacity="0" result="BackgroundImageFix"/>
<feBlend mode="normal" in="SourceGraphic" in2="BackgroundImageFix" result="shape"/>
<feGaussianBlur stdDeviation="15.5" result="effect1_foregroundBlur_133_1346"/>
</filter>
<filter id="filter4_f_133_1346" x="-11.4238" y="14.7727" width="199.516" height="177.069" filterUnits="userSpaceOnUse" color-interpolation-filters="sRGB">
<feFlood flood-opacity="0" result="BackgroundImageFix"/>
<feBlend mode="normal" in="SourceGraphic" in2="BackgroundImageFix" result="shape"/>
<feGaussianBlur stdDeviation="13.5" result="effect1_foregroundBlur_133_1346"/>
</filter>
<filter id="filter5_f_133_1346" x="22.8926" y="25.0909" width="57.9843" height="80.1095" filterUnits="userSpaceOnUse" color-interpolation-filters="sRGB">
<feFlood flood-opacity="0" result="BackgroundImageFix"/>
<feBlend mode="normal" in="SourceGraphic" in2="BackgroundImageFix" result="shape"/>
<feGaussianBlur stdDeviation="1.5" result="effect1_foregroundBlur_133_1346"/>
</filter>
<filter id="filter6_f_133_1346" x="32" y="35" width="30" height="31" filterUnits="userSpaceOnUse" color-interpolation-filters="sRGB">
<feFlood flood-opacity="0" result="BackgroundImageFix"/>
<feBlend mode="normal" in="SourceGraphic" in2="BackgroundImageFix" result="shape"/>
<feGaussianBlur stdDeviation="0.5" result="effect1_foregroundBlur_133_1346"/>
</filter>
<filter id="filter7_f_133_1346" x="129" y="43" width="19" height="45" filterUnits="userSpaceOnUse" color-interpolation-filters="sRGB">
<feFlood flood-opacity="0" result="BackgroundImageFix"/>
<feBlend mode="normal" in="SourceGraphic" in2="BackgroundImageFix" result="shape"/>
<feGaussianBlur stdDeviation="0.5" result="effect1_foregroundBlur_133_1346"/>
</filter>
<filter id="filter8_f_133_1346" x="89.3428" y="26.0916" width="38.4867" height="13.2567" filterUnits="userSpaceOnUse" color-interpolation-filters="sRGB">
<feFlood flood-opacity="0" result="BackgroundImageFix"/>
<feBlend mode="normal" in="SourceGraphic" in2="BackgroundImageFix" result="shape"/>
<feGaussianBlur stdDeviation="0.5" result="effect1_foregroundBlur_133_1346"/>
</filter>
<linearGradient id="paint0_linear_133_1346" x1="74.0397" y1="-34.3729" x2="72.5464" y2="245.798" gradientUnits="userSpaceOnUse">
<stop stop-color="#BAEFEC" stop-opacity="0.7"/>
<stop offset="1" stop-color="#44126D"/>
</linearGradient>
<radialGradient id="paint1_angular_133_1346" cx="0" cy="0" r="1" gradientUnits="userSpaceOnUse" gradientTransform="translate(72.9813 106.04) rotate(90) scale(72.758 72.5853)">
<stop offset="0.31256" stop-color="#BA85D7"/>
<stop offset="0.626148" stop-color="#7CCADF"/>
<stop offset="0.890375" stop-color="#6A3DE6"/>
</radialGradient>
<linearGradient id="paint2_linear_133_1346" x1="122.919" y1="163.897" x2="122.87" y2="86.6801" gradientUnits="userSpaceOnUse">
<stop stop-color="#3C3C3C"/>
<stop offset="1" stop-color="#9696A0" stop-opacity="0"/>
</linearGradient>
<linearGradient id="paint3_linear_133_1346" x1="126.274" y1="148.352" x2="126.274" y2="15.6358" gradientUnits="userSpaceOnUse">
<stop/>
<stop offset="1" stop-color="#080808" stop-opacity="0"/>
</linearGradient>
<linearGradient id="paint4_linear_133_1346" x1="25.8926" y1="29.1971" x2="60.6165" y2="63.6794" gradientUnits="userSpaceOnUse">
<stop stop-color="#929292"/>
<stop offset="1" stop-color="#6F6F6F" stop-opacity="0"/>
</linearGradient>
<linearGradient id="paint5_linear_133_1346" x1="108.586" y1="25.3557" x2="105.785" y2="34.8408" gradientUnits="userSpaceOnUse">
<stop stop-color="white"/>
<stop offset="1" stop-color="white" stop-opacity="0"/>
</linearGradient>
<clipPath id="clip0_133_1346">
<rect y="33.4888" width="145.543" height="145.543" rx="72.7717" transform="rotate(-13.3027 0 33.4888)" fill="white"/>
</clipPath>
<clipPath id="clip1_133_1346">
<rect width="88.0985" height="88.0985" fill="white" transform="translate(31 38.271) rotate(-13.3027)"/>
</clipPath>
</defs>
</svg>
