<svg width="1440" height="1949" viewBox="0 0 1440 1949" fill="none" xmlns="http://www.w3.org/2000/svg">
<path opacity="0.53" d="M-642.791 30.9096C-452.776 -28.941 -337.249 2.50813 -296.212 125.257C-255.175 248.006 -139.648 279.455 50.3671 219.604C240.382 159.754 355.909 191.203 396.946 313.952C437.983 436.7 553.51 468.149 743.525 408.299C933.541 348.448 1049.07 379.897 1090.1 502.646C1131.14 625.395 1246.67 656.844 1436.68 596.994C1626.7 537.143 1742.23 568.592 1783.26 691.341C1824.3 814.09 1939.83 845.539 2129.84 785.688C2319.86 725.838 2435.38 757.287 2476.42 880.035C2517.46 1002.78 2632.98 1034.23 2823 974.383C3013.02 914.532 3128.54 945.981 3169.58 1068.73C3210.62 1191.48 3326.14 1222.93 3516.16 1163.08C3706.17 1103.23 3821.7 1134.68 3862.74 1257.42C3903.77 1380.17 4019.3 1411.62 4209.32 1351.77C4399.33 1291.92 4514.86 1323.37 4555.9 1446.12C4596.93 1568.87 4712.46 1600.32 4902.47 1540.47C5092.49 1480.62 5208.02 1512.07 5249.05 1634.81C5290.09 1757.56 5405.62 1789.01 5595.63 1729.16C5785.65 1669.31 5901.17 1700.76 5942.21 1823.51C5983.25 1946.26 6098.78 1977.71 6288.79 1917.86" stroke="url(#paint0_linear_133_1341)" stroke-width="1.99343"/>
<defs>
<linearGradient id="paint0_linear_133_1341" x1="-642.791" y1="30.9096" x2="6288.79" y2="1917.86" gradientUnits="userSpaceOnUse">
<stop stop-color="#CB4CF2"/>
<stop offset="1" stop-color="#762C8C"/>
</linearGradient>
</defs>
</svg>
