<svg width="25" height="25" viewBox="0 0 25 25" fill="none" xmlns="http://www.w3.org/2000/svg">
<g id="call" clip-path="url(#clip0_1_282)">
<path id="Vector" d="M19.9347 15.6112L17.4312 15.3212C16.83 15.2512 16.2387 15.4612 15.8148 15.8912L14.0013 17.7312C11.2121 16.2912 8.92545 13.9812 7.50618 11.1412L9.32955 9.29121C9.75336 8.86121 9.96034 8.26121 9.89135 7.65121L9.60552 5.13121C9.48725 4.12121 8.64949 3.36121 7.64417 3.36121H5.93907C4.82533 3.36121 3.89886 4.30121 3.96785 5.43121C4.49023 13.9712 11.2219 20.7912 19.6291 21.3212C20.7429 21.3912 21.6693 20.4512 21.6693 19.3212V17.5912C21.6792 16.5812 20.9301 15.7312 19.9347 15.6112Z" fill="white"/>
</g>
<defs>
<clipPath id="clip0_1_282">
<rect width="23.6546" height="24" fill="white" transform="translate(0.981445 0.351196)"/>
</clipPath>
</defs>
</svg>
