<svg width="25" height="25" viewBox="0 0 25 25" fill="none" xmlns="http://www.w3.org/2000/svg">
<g id="home">
<path id="Vector" d="M10.5387 19.3512L10.5387 14.3512L14.4811 14.3512L14.4811 19.3512C14.4811 19.9012 14.9246 20.3512 15.4667 20.3512L18.4235 20.3512C18.9656 20.3512 19.4091 19.9012 19.4091 19.3512L19.4091 12.3512L21.0847 12.3512C21.538 12.3512 21.7549 11.7812 21.4099 11.4812L13.1702 3.95117C12.7957 3.61117 12.2241 3.61117 11.8495 3.95117L3.60986 11.4812C3.27476 11.7812 3.48173 12.3512 3.93511 12.3512L5.61064 12.3512L5.61064 19.3512C5.61064 19.9012 6.05417 20.3512 6.59625 20.3512L9.55307 20.3512C10.0952 20.3512 10.5387 19.9012 10.5387 19.3512Z" fill="#FFFAFA"/>
</g>
</svg>
