<svg width="20" height="20" viewBox="0 0 20 20" fill="none" xmlns="http://www.w3.org/2000/svg">
<path d="M9.85606 8C10.9017 8 11.9044 7.57857 12.6438 6.82843C13.3831 6.07828 13.7985 5.06087 13.7985 4C13.7985 2.93913 13.3831 1.92172 12.6438 1.17157C11.9044 0.421427 10.9017 0 9.85606 0C8.81047 0 7.8077 0.421427 7.06835 1.17157C6.329 1.92172 5.91364 2.93913 5.91364 4C5.91364 5.06087 6.329 6.07828 7.06835 6.82843C7.8077 7.57857 8.81047 8 9.85606 8ZM3.44962 11C4.10312 11 4.72985 10.7366 5.19195 10.2678C5.65404 9.79893 5.91364 9.16304 5.91364 8.5C5.91364 7.83696 5.65404 7.20107 5.19195 6.73223C4.72985 6.26339 4.10312 6 3.44962 6C2.79612 6 2.16939 6.26339 1.7073 6.73223C1.24521 7.20107 0.985607 7.83696 0.985607 8.5C0.985607 9.16304 1.24521 9.79893 1.7073 10.2678C2.16939 10.7366 2.79612 11 3.44962 11ZM18.7265 8.5C18.7265 9.16304 18.4669 9.79893 18.0048 10.2678C17.5427 10.7366 16.916 11 16.2625 11C15.609 11 14.9823 10.7366 14.5202 10.2678C14.0581 9.79893 13.7985 9.16304 13.7985 8.5C13.7985 7.83696 14.0581 7.20107 14.5202 6.73223C14.9823 6.26339 15.609 6 16.2625 6C16.916 6 17.5427 6.26339 18.0048 6.73223C18.4669 7.20107 18.7265 7.83696 18.7265 8.5ZM9.85606 9C11.1631 9 12.4165 9.52678 13.3407 10.4645C14.2649 11.4021 14.7841 12.6739 14.7841 14V20H4.92803V14C4.92803 12.6739 5.44723 11.4021 6.37142 10.4645C7.29561 9.52678 8.54907 9 9.85606 9ZM2.95682 14C2.95682 13.307 3.05538 12.638 3.24067 12.006L3.07312 12.02C2.22834 12.1141 1.44752 12.5213 0.880405 13.1635C0.313286 13.8057 -0.000220538 14.6377 1.16398e-07 15.5V20H2.95682V14ZM19.7121 20V15.5C19.7122 14.6084 19.3769 13.7503 18.7747 13.101C18.1724 12.4516 17.3486 12.06 16.4715 12.006C16.6558 12.638 16.7553 13.307 16.7553 14V20H19.7121Z" fill="white"/>
</svg>
