<svg width="24" height="25" viewBox="0 0 24 25" fill="none" xmlns="http://www.w3.org/2000/svg">
<g id="ri:team-fill">
<path id="Vector" d="M11.8322 12.3512C12.8778 12.3512 13.8805 11.9298 14.6199 11.1796C15.3592 10.4295 15.7746 9.41206 15.7746 8.3512C15.7746 7.29033 15.3592 6.27291 14.6199 5.52277C13.8805 4.77262 12.8778 4.3512 11.8322 4.3512C10.7866 4.3512 9.78379 4.77262 9.04444 5.52277C8.30509 6.27291 7.88973 7.29033 7.88973 8.3512C7.88973 9.41206 8.30509 10.4295 9.04444 11.1796C9.78379 11.9298 10.7866 12.3512 11.8322 12.3512ZM5.42571 15.3512C6.07921 15.3512 6.70594 15.0878 7.16803 14.619C7.63013 14.1501 7.88973 13.5142 7.88973 12.8512C7.88973 12.1882 7.63013 11.5523 7.16803 11.0834C6.70594 10.6146 6.07921 10.3512 5.42571 10.3512C4.77221 10.3512 4.14548 10.6146 3.68339 11.0834C3.2213 11.5523 2.9617 12.1882 2.9617 12.8512C2.9617 13.5142 3.2213 14.1501 3.68339 14.619C4.14548 15.0878 4.77221 15.3512 5.42571 15.3512ZM20.7026 12.8512C20.7026 13.5142 20.443 14.1501 19.9809 14.619C19.5188 15.0878 18.8921 15.3512 18.2386 15.3512C17.5851 15.3512 16.9584 15.0878 16.4963 14.619C16.0342 14.1501 15.7746 13.5142 15.7746 12.8512C15.7746 12.1882 16.0342 11.5523 16.4963 11.0834C16.9584 10.6146 17.5851 10.3512 18.2386 10.3512C18.8921 10.3512 19.5188 10.6146 19.9809 11.0834C20.443 11.5523 20.7026 12.1882 20.7026 12.8512ZM11.8322 13.3512C13.1391 13.3512 14.3926 13.878 15.3168 14.8157C16.241 15.7533 16.7602 17.0251 16.7602 18.3512V24.3512H6.90412V18.3512C6.90412 17.0251 7.42332 15.7533 8.34751 14.8157C9.27169 13.878 10.5252 13.3512 11.8322 13.3512ZM4.93291 18.3512C4.93291 17.6582 5.03147 16.9892 5.21676 16.3572L5.04921 16.3712C4.20443 16.4653 3.42361 16.8725 2.85649 17.5147C2.28938 18.1569 1.97587 18.9889 1.97609 19.8512V24.3512H4.93291V18.3512ZM21.6882 24.3512V19.8512C21.6883 18.9596 21.353 18.1015 20.7508 17.4522C20.1485 16.8028 19.3247 16.4112 18.4475 16.3572C18.6319 16.9892 18.7314 17.6582 18.7314 18.3512V24.3512H21.6882Z" fill="white" />
</g>
</svg>
