<svg width="1500" height="2258" viewBox="0 0 1500 2258" fill="none" xmlns="http://www.w3.org/2000/svg">
<g filter="url(#filter0_f_710_1464)">
<path d="M1196 744.501C1052.96 744.501 936.999 620.518 936.999 467.576C936.999 314.635 1052.96 190.652 1196 190.652C1339.04 190.652 1455 314.635 1455 467.576C1455 620.518 1339.04 744.501 1196 744.501ZM1196 375.359C1148.37 375.359 1109.75 416.646 1109.75 467.576C1109.75 518.507 1148.37 559.794 1196 559.794C1243.63 559.794 1282.25 518.507 1282.25 467.576C1282.25 416.646 1243.63 375.359 1196 375.359Z" fill="#1812CD" fill-opacity="0.2"/>
</g>
<g filter="url(#filter1_f_710_1464)">
<path d="M1052 1909.71C772.543 1909.71 545.999 1627.41 545.999 1279.18C545.999 930.943 772.543 648.642 1052 648.642C1331.46 648.642 1558 930.943 1558 1279.18C1558 1627.41 1331.46 1909.71 1052 1909.71ZM1052 1069.21C958.938 1069.21 883.498 1163.21 883.498 1279.18C883.498 1395.14 958.938 1489.15 1052 1489.15C1145.06 1489.15 1220.5 1395.14 1220.5 1279.18C1220.5 1163.21 1145.06 1069.21 1052 1069.21Z" fill="#1812CD" fill-opacity="0.07"/>
</g>
<g filter="url(#filter2_f_710_1464)">
<path d="M228.998 754.087C-58.7419 754.087 -292.001 616.513 -292.001 446.807C-292.001 277.101 -58.7418 139.527 228.999 139.527C516.739 139.527 749.999 277.101 749.999 446.807C749.999 616.513 516.739 754.087 228.998 754.087ZM228.999 344.481C133.179 344.481 55.5021 390.294 55.5021 446.807C55.5021 503.32 133.179 549.133 228.999 549.133C324.818 549.133 402.495 503.32 402.495 446.807C402.495 390.294 324.818 344.481 228.999 344.481Z" fill="#D739E5" fill-opacity="0.1"/>
</g>
<g filter="url(#filter3_f_710_1464)">
<path d="M813 1036.34C525.259 1036.34 292 812.928 292 537.34C292 261.752 525.259 38.3434 813 38.3434C1100.74 38.3434 1334 261.752 1334 537.34C1334 812.928 1100.74 1036.34 813 1036.34ZM813 371.171C717.18 371.171 639.503 445.567 639.503 537.34C639.503 629.113 717.18 703.509 813 703.509C908.819 703.509 986.496 629.113 986.496 537.34C986.496 445.567 908.819 371.171 813 371.171Z" fill="url(#paint0_linear_710_1464)" fill-opacity="0.1"/>
</g>
<g filter="url(#filter4_f_710_1464)">
<path d="M429 2136.58C141.259 2136.58 -92.0004 1913.17 -92.0004 1637.58C-92.0004 1361.99 141.259 1138.59 429 1138.59C716.74 1138.59 949.999 1361.99 949.999 1637.58C949.999 1913.17 716.74 2136.58 429 2136.58ZM429 1471.41C333.18 1471.41 255.503 1545.81 255.503 1637.58C255.503 1729.36 333.18 1803.75 429 1803.75C524.819 1803.75 602.496 1729.36 602.496 1637.58C602.496 1545.81 524.819 1471.41 429 1471.41Z" fill="url(#paint1_linear_710_1464)" fill-opacity="0.15"/>
</g>
<g filter="url(#filter5_f_710_1464)">
<path d="M1315.5 2322.97C1183.78 2322.97 1077 2205.66 1077 2060.96C1077 1916.25 1183.78 1798.94 1315.5 1798.94C1447.22 1798.94 1554 1916.25 1554 2060.96C1554 2205.66 1447.22 2322.97 1315.5 2322.97ZM1315.5 1964.17C1266.84 1964.17 1227.4 2007.51 1227.4 2060.96C1227.4 2114.41 1266.84 2157.74 1315.5 2157.74C1364.16 2157.74 1403.6 2114.41 1403.6 2060.96C1403.6 2007.51 1364.16 1964.17 1315.5 1964.17Z" fill="#3DDEED" fill-opacity="0.3"/>
</g>
<g filter="url(#filter6_f_710_1464)">
<path d="M1676 1739.5C1676 1860.17 1572.8 1958 1445.5 1958C1318.2 1958 1215 1860.17 1215 1739.5C1215 1618.83 1318.2 1521 1445.5 1521C1572.8 1521 1676 1618.83 1676 1739.5Z" fill="#D739E5" fill-opacity="0.3"/>
</g>
<g filter="url(#filter7_f_710_1464)">
<path d="M131.5 1484.74C-0.219915 1484.74 -107 1368.15 -107 1224.33C-107 1080.5 -0.219879 963.91 131.5 963.91C263.22 963.91 370 1080.5 370 1224.33C370 1368.15 263.22 1484.74 131.5 1484.74ZM131.5 1074.85C55.8918 1074.85 -5.40071 1141.77 -5.40071 1224.33C-5.40072 1306.88 55.8918 1373.81 131.5 1373.81C207.108 1373.81 268.401 1306.88 268.401 1224.33C268.401 1141.77 207.108 1074.85 131.5 1074.85Z" fill="#3DDEED" fill-opacity="0.5"/>
</g>
<g filter="url(#filter8_f_710_1464)">
<path d="M1305.5 1224.86C1034.6 1224.86 815 1018.62 815 764.205C815 509.793 1034.6 303.552 1305.5 303.552C1576.4 303.552 1796 509.793 1796 764.205C1796 1018.62 1576.4 1224.86 1305.5 1224.86ZM1305.5 610.805C1215.29 610.805 1142.16 679.484 1142.16 764.205C1142.16 848.926 1215.29 917.606 1305.5 917.606C1395.71 917.606 1468.84 848.926 1468.84 764.205C1468.84 679.484 1395.71 610.805 1305.5 610.805Z" fill="#D739E5" fill-opacity="0.1"/>
</g>
<defs>
<filter id="filter0_f_710_1464" x="478.999" y="-267.348" width="1434" height="1469.85" filterUnits="userSpaceOnUse" color-interpolation-filters="sRGB">
<feFlood flood-opacity="0" result="BackgroundImageFix"/>
<feBlend mode="normal" in="SourceGraphic" in2="BackgroundImageFix" result="shape"/>
<feGaussianBlur stdDeviation="229" result="effect1_foregroundBlur_710_1464"/>
</filter>
<filter id="filter1_f_710_1464" x="87.999" y="190.642" width="1928" height="2177.07" filterUnits="userSpaceOnUse" color-interpolation-filters="sRGB">
<feFlood flood-opacity="0" result="BackgroundImageFix"/>
<feBlend mode="normal" in="SourceGraphic" in2="BackgroundImageFix" result="shape"/>
<feGaussianBlur stdDeviation="229" result="effect1_foregroundBlur_710_1464"/>
</filter>
<filter id="filter2_f_710_1464" x="-750.001" y="-318.473" width="1958" height="1530.56" filterUnits="userSpaceOnUse" color-interpolation-filters="sRGB">
<feFlood flood-opacity="0" result="BackgroundImageFix"/>
<feBlend mode="normal" in="SourceGraphic" in2="BackgroundImageFix" result="shape"/>
<feGaussianBlur stdDeviation="229" result="effect1_foregroundBlur_710_1464"/>
</filter>
<filter id="filter3_f_710_1464" x="-166" y="-419.657" width="1958" height="1913.99" filterUnits="userSpaceOnUse" color-interpolation-filters="sRGB">
<feFlood flood-opacity="0" result="BackgroundImageFix"/>
<feBlend mode="normal" in="SourceGraphic" in2="BackgroundImageFix" result="shape"/>
<feGaussianBlur stdDeviation="229" result="effect1_foregroundBlur_710_1464"/>
</filter>
<filter id="filter4_f_710_1464" x="-550" y="680.586" width="1958" height="1913.99" filterUnits="userSpaceOnUse" color-interpolation-filters="sRGB">
<feFlood flood-opacity="0" result="BackgroundImageFix"/>
<feBlend mode="normal" in="SourceGraphic" in2="BackgroundImageFix" result="shape"/>
<feGaussianBlur stdDeviation="229" result="effect1_foregroundBlur_710_1464"/>
</filter>
<filter id="filter5_f_710_1464" x="619" y="1340.94" width="1393" height="1440.03" filterUnits="userSpaceOnUse" color-interpolation-filters="sRGB">
<feFlood flood-opacity="0" result="BackgroundImageFix"/>
<feBlend mode="normal" in="SourceGraphic" in2="BackgroundImageFix" result="shape"/>
<feGaussianBlur stdDeviation="229" result="effect1_foregroundBlur_710_1464"/>
</filter>
<filter id="filter6_f_710_1464" x="791" y="1097" width="1309" height="1285" filterUnits="userSpaceOnUse" color-interpolation-filters="sRGB">
<feFlood flood-opacity="0" result="BackgroundImageFix"/>
<feBlend mode="normal" in="SourceGraphic" in2="BackgroundImageFix" result="shape"/>
<feGaussianBlur stdDeviation="212" result="effect1_foregroundBlur_710_1464"/>
</filter>
<filter id="filter7_f_710_1464" x="-565" y="505.91" width="1393" height="1436.83" filterUnits="userSpaceOnUse" color-interpolation-filters="sRGB">
<feFlood flood-opacity="0" result="BackgroundImageFix"/>
<feBlend mode="normal" in="SourceGraphic" in2="BackgroundImageFix" result="shape"/>
<feGaussianBlur stdDeviation="229" result="effect1_foregroundBlur_710_1464"/>
</filter>
<filter id="filter8_f_710_1464" x="357" y="-154.448" width="1897" height="1837.31" filterUnits="userSpaceOnUse" color-interpolation-filters="sRGB">
<feFlood flood-opacity="0" result="BackgroundImageFix"/>
<feBlend mode="normal" in="SourceGraphic" in2="BackgroundImageFix" result="shape"/>
<feGaussianBlur stdDeviation="229" result="effect1_foregroundBlur_710_1464"/>
</filter>
<linearGradient id="paint0_linear_710_1464" x1="813" y1="38.3434" x2="813" y2="1036.34" gradientUnits="userSpaceOnUse">
<stop stop-color="#0095FF"/>
<stop offset="1" stop-color="#D739E5"/>
</linearGradient>
<linearGradient id="paint1_linear_710_1464" x1="429" y1="1138.59" x2="429" y2="2136.58" gradientUnits="userSpaceOnUse">
<stop stop-color="#0095FF"/>
<stop offset="1" stop-color="#D739E5"/>
</linearGradient>
</defs>
</svg>
