<svg width="35" height="35" viewBox="0 0 35 35" fill="none" xmlns="http://www.w3.org/2000/svg">
<path id="Vector" d="M26.9948 6.28714C26.5894 6.28714 26.1932 6.40735 25.8561 6.63257C25.519 6.85779 25.2563 7.17791 25.1012 7.55244C24.946 7.92698 24.9054 8.3391 24.9845 8.7367C25.0636 9.1343 25.2588 9.49952 25.5455 9.78618C25.8321 10.0728 26.1974 10.268 26.595 10.3471C26.9926 10.4262 27.4047 10.3856 27.7792 10.2305C28.1537 10.0754 28.4739 9.81264 28.6991 9.47557C28.9243 9.1385 29.0445 8.74221 29.0445 8.33682C29.0445 7.79321 28.8286 7.27187 28.4442 6.88748C28.0598 6.50308 27.5384 6.28714 26.9948 6.28714ZM34.852 10.4207C34.8188 9.00348 34.5533 7.60133 34.0663 6.27006C33.632 5.131 32.956 4.09957 32.0849 3.24676C31.2391 2.37125 30.2053 1.69955 29.0616 1.28248C27.7338 0.780578 26.3301 0.509078 24.911 0.479682C23.1004 0.377197 22.5197 0.377197 17.8737 0.377197C13.2278 0.377197 12.647 0.377197 10.8364 0.479682C9.4173 0.509078 8.01359 0.780578 6.68583 1.28248C5.54428 1.70377 4.51133 2.37489 3.66253 3.24676C2.78702 4.09256 2.11532 5.1264 1.69825 6.27006C1.19635 7.59782 0.924849 9.00153 0.895453 10.4207C0.792969 12.2312 0.792969 12.812 0.792969 17.4579C0.792969 22.1039 0.792969 22.6847 0.895453 24.4952C0.924849 25.9144 1.19635 27.3181 1.69825 28.6458C2.11532 29.7895 2.78702 30.8233 3.66253 31.6691C4.51133 32.541 5.54428 33.2121 6.68583 33.6334C8.01359 34.1353 9.4173 34.4068 10.8364 34.4362C12.647 34.5387 13.2278 34.5387 17.8737 34.5387C22.5197 34.5387 23.1004 34.5387 24.911 34.4362C26.3301 34.4068 27.7338 34.1353 29.0616 33.6334C30.2053 33.2163 31.2391 32.5446 32.0849 31.6691C32.9598 30.8195 33.6364 29.7872 34.0663 28.6458C34.5533 27.3146 34.8188 25.9124 34.852 24.4952C34.852 22.6847 34.9545 22.1039 34.9545 17.4579C34.9545 12.812 34.9545 12.2312 34.852 10.4207ZM31.7774 24.2902C31.765 25.3745 31.5686 26.4487 31.1967 27.4673C30.924 28.2106 30.4859 28.8823 29.9156 29.4315C29.3616 29.9961 28.6913 30.4332 27.9514 30.7126C26.9328 31.0845 25.8586 31.2809 24.7743 31.2933C23.0663 31.3788 22.4343 31.3958 17.942 31.3958C13.4498 31.3958 12.8178 31.3958 11.1097 31.2933C9.98393 31.3144 8.86293 31.1411 7.79607 30.7809C7.08856 30.4873 6.44901 30.0512 5.91719 29.4999C5.35026 28.9511 4.9177 28.2789 4.65322 27.5356C4.2362 26.5025 4.00491 25.4038 3.96999 24.2902C3.96999 22.5822 3.8675 21.9502 3.8675 17.4579C3.8675 12.9657 3.8675 12.3337 3.96999 10.6256C3.97764 9.5172 4.18 8.41872 4.56781 7.3803C4.86851 6.65934 5.33007 6.01668 5.91719 5.50142C6.43613 4.91413 7.07747 4.4477 7.79607 4.13496C8.83723 3.75926 9.93458 3.56289 11.0414 3.55422C12.7495 3.55422 13.3815 3.45173 17.8737 3.45173C22.366 3.45173 22.9979 3.45173 24.706 3.55422C25.7902 3.56665 26.8645 3.76302 27.883 4.13496C28.6592 4.42303 29.3559 4.89138 29.9156 5.50142C30.4754 6.0261 30.9127 6.66758 31.1967 7.3803C31.5763 8.42041 31.7728 9.51844 31.7774 10.6256C31.8628 12.3337 31.8799 12.9657 31.8799 17.4579C31.8799 21.9502 31.8628 22.5822 31.7774 24.2902ZM17.8737 8.69552C16.1414 8.6989 14.449 9.21567 13.0102 10.1806C11.5715 11.1454 10.4511 12.5151 9.79048 14.1165C9.12989 15.7179 8.9588 17.4792 9.29883 19.1779C9.63885 20.8765 10.4747 22.4362 11.7009 23.6599C12.927 24.8837 14.4883 25.7165 16.1876 26.0532C17.8869 26.3899 19.6478 26.2154 21.248 25.5517C22.8481 24.888 24.2156 23.7649 25.1777 22.3243C26.1397 20.8837 26.6532 19.1903 26.6532 17.4579C26.6555 16.3052 26.4298 15.1633 25.9892 14.0981C25.5486 13.0328 24.9017 12.0652 24.0858 11.2509C23.2698 10.4365 22.301 9.79156 21.2349 9.35301C20.1688 8.91446 19.0265 8.69102 17.8737 8.69552ZM17.8737 23.1458C16.7488 23.1458 15.6491 22.8122 14.7137 22.1872C13.7783 21.5623 13.0493 20.6739 12.6188 19.6346C12.1883 18.5953 12.0756 17.4516 12.2951 16.3483C12.5146 15.2449 13.0563 14.2315 13.8518 13.436C14.6472 12.6405 15.6607 12.0988 16.7641 11.8793C17.8674 11.6599 19.011 11.7725 20.0504 12.203C21.0897 12.6335 21.978 13.3626 22.603 14.2979C23.228 15.2333 23.5616 16.333 23.5616 17.4579C23.5616 18.2049 23.4145 18.9445 23.1286 19.6346C22.8428 20.3247 22.4238 20.9517 21.8957 21.4799C21.3675 22.0081 20.7405 22.427 20.0504 22.7129C19.3603 22.9987 18.6207 23.1458 17.8737 23.1458Z" fill="white"/>
</svg>
