<svg width="35" height="35" viewBox="0 0 35 35" fill="none" xmlns="http://www.w3.org/2000/svg">
<g id="Linkedin">
<path id="Vector" d="M0.641846 10.4421H7.6446V32.5861H0.641846V10.4421ZM26.7192 10.7018C26.6448 10.6777 26.5743 10.6515 26.496 10.6294C26.4021 10.6075 26.3074 10.5887 26.2123 10.573C25.7988 10.486 25.3778 10.4422 24.9558 10.4421C20.8731 10.4421 18.2838 13.496 17.4304 14.6757V10.4421H10.4277V32.5861H17.4304V20.5076C17.4304 20.5076 22.7226 12.9263 24.9558 18.4945V32.5861H31.9565V18.4945C31.9536 16.9044 31.4379 14.5088 30.49 13.2526C29.5422 11.9965 28.216 11.0993 26.7192 10.7018Z" fill="white"/>
<path id="Vector_2" d="M4.06689 7.42252C5.95849 7.42252 7.49194 5.84526 7.49194 3.89961C7.49194 1.95397 5.95849 0.376709 4.06689 0.376709C2.17529 0.376709 0.641846 1.95397 0.641846 3.89961C0.641846 5.84526 2.17529 7.42252 4.06689 7.42252Z" fill="white"/>
</g>
</svg>
