<svg width="34" height="34" viewBox="0 0 34 34" fill="none" xmlns="http://www.w3.org/2000/svg">
<g id="mail">
<path id="Vector" d="M28.6729 26.9837H5.89856C5.07491 26.9837 4.28499 26.6565 3.70258 26.0741C3.12016 25.4917 2.79297 24.7018 2.79297 23.8781V9.38538C2.79297 8.56172 3.12016 7.7718 3.70258 7.18939C4.28499 6.60698 5.07491 6.27979 5.89856 6.27979H28.6729C29.4965 6.27979 30.2865 6.60698 30.8689 7.18939C31.4513 7.7718 31.7785 8.56172 31.7785 9.38538V23.8781C31.7785 24.7018 31.4513 25.4917 30.8689 26.0741C30.2865 26.6565 29.4965 26.9837 28.6729 26.9837ZM5.89856 8.35018C5.62401 8.35018 5.3607 8.45924 5.16656 8.65338C4.97243 8.84752 4.86336 9.11082 4.86336 9.38538V23.8781C4.86336 24.1527 4.97243 24.416 5.16656 24.6101C5.3607 24.8043 5.62401 24.9133 5.89856 24.9133H28.6729C28.9474 24.9133 29.2107 24.8043 29.4049 24.6101C29.599 24.416 29.7081 24.1527 29.7081 23.8781V9.38538C29.7081 9.11082 29.599 8.84752 29.4049 8.65338C29.2107 8.45924 28.9474 8.35018 28.6729 8.35018H5.89856Z" fill="white"/>
<path id="Vector_2" d="M17.288 17.635C17.066 17.6355 16.8496 17.5646 16.671 17.4327C16.4923 17.3009 16.3608 17.1151 16.2958 16.9027C16.2308 16.6904 16.2358 16.4628 16.3101 16.2535C16.3844 16.0443 16.524 15.8644 16.7083 15.7406L29.1307 7.45902C29.3584 7.32436 29.6291 7.28203 29.8872 7.34075C30.1452 7.39946 30.3709 7.55475 30.518 7.77472C30.6651 7.99469 30.7224 8.26263 30.678 8.52351C30.6337 8.78438 30.4912 9.01839 30.2797 9.17745L17.8574 17.459C17.6889 17.5722 17.4909 17.6334 17.288 17.635Z" fill="white"/>
<path id="Vector_3" d="M17.2057 17.6139C17.0027 17.6123 16.8047 17.5511 16.6363 17.4379L10.4251 13.2971L4.21394 9.15632C4.01307 8.99452 3.87984 8.76356 3.84034 8.50867C3.80084 8.25378 3.85792 7.99333 4.00039 7.77832C4.14287 7.56331 4.36048 7.40923 4.61061 7.34626C4.86074 7.2833 5.12536 7.31597 5.35266 7.4379L17.775 15.7195C17.9586 15.8428 18.0978 16.0217 18.1724 16.23C18.2469 16.4382 18.2527 16.6649 18.1891 16.8767C18.1254 17.0885 17.9956 17.2743 17.8186 17.407C17.6416 17.5397 17.4268 17.6122 17.2057 17.6139Z" fill="white"/>
</g>
</svg>
