<svg width="26" height="28" viewBox="0 0 26 28" fill="none" xmlns="http://www.w3.org/2000/svg">
<path id="Vector" d="M22.7039 15.3627C22.4277 15.3627 22.1391 15.2699 21.863 15.2036C21.3038 15.0735 20.7543 14.9008 20.2189 14.6867C19.6366 14.4631 18.9966 14.4747 18.422 14.7194C17.8474 14.964 17.3788 15.4245 17.1063 16.0121L16.8302 16.6085C15.6078 15.8904 14.4845 14.9985 13.4918 13.9578C12.5063 12.9095 11.6617 11.7233 10.9817 10.4325L11.5088 10.0614C12.0653 9.77365 12.5013 9.2788 12.733 8.67201C12.9647 8.06522 12.9757 7.38939 12.7639 6.77455C12.5646 6.20787 12.4011 5.62788 12.2744 5.03837C12.2116 4.7468 12.1614 4.44198 12.1238 4.13715C11.9714 3.20362 11.5083 2.35822 10.818 1.75321C10.1278 1.14819 9.2556 0.823319 8.35863 0.83709H4.59347C4.05259 0.831727 3.51695 0.949496 3.02304 1.18238C2.52913 1.41526 2.08853 1.75779 1.73124 2.18665C1.37395 2.6155 1.10837 3.12062 0.952555 3.66761C0.796745 4.2146 0.754372 4.79062 0.82832 5.35645C1.49693 10.9088 3.89821 16.0676 7.65285 20.0181C11.4075 23.9685 16.3015 26.4855 21.5618 27.1713H22.0387C22.9642 27.1728 23.8577 26.8142 24.5488 26.1641C24.9458 25.7891 25.263 25.3294 25.4794 24.8153C25.6957 24.3013 25.8063 23.7446 25.8038 23.1821V19.2061C25.7885 18.2855 25.471 17.3991 24.9056 16.6982C24.3403 15.9972 23.5621 15.5252 22.7039 15.3627ZM23.3314 23.3146C23.3312 23.5028 23.293 23.6888 23.2194 23.8602C23.1458 24.0315 23.0385 24.1844 22.9047 24.3086C22.7644 24.4365 22.6004 24.532 22.4232 24.5891C22.246 24.6461 22.0595 24.6634 21.8755 24.64C17.1752 24.0035 12.8093 21.7328 9.46648 18.186C6.12363 14.6392 3.99407 10.0181 3.41373 5.05163C3.39375 4.85749 3.41126 4.66109 3.46518 4.4743C3.51911 4.28751 3.60835 4.11421 3.72749 3.96486C3.8451 3.82349 3.98987 3.71019 4.15217 3.63249C4.31447 3.5548 4.49058 3.51449 4.66878 3.51425H8.43393C8.72579 3.50739 9.01078 3.60819 9.23985 3.79929C9.46892 3.99039 9.62775 4.25984 9.68898 4.56126C9.73918 4.92351 9.80193 5.28135 9.87724 5.63477C10.0222 6.33341 10.2152 7.01998 10.4546 7.68903L8.69749 8.55049C8.54726 8.62328 8.41212 8.72669 8.29984 8.85478C8.18755 8.98287 8.10034 9.13312 8.04319 9.29691C7.98605 9.46069 7.96011 9.63478 7.96686 9.80918C7.97361 9.98358 8.01291 10.1549 8.08251 10.3132C9.88878 14.3988 12.9989 17.683 16.8679 19.5905C17.1734 19.723 17.5162 19.723 17.8217 19.5905C17.9782 19.5313 18.1221 19.44 18.2449 19.3217C18.3677 19.2034 18.467 19.0605 18.5371 18.9013L19.3152 17.0458C19.964 17.2909 20.6262 17.4944 21.2982 17.6555C21.6329 17.735 21.9717 17.8013 22.3148 17.8543C22.6002 17.9189 22.8554 18.0867 23.0364 18.3286C23.2173 18.5705 23.3128 18.8714 23.3063 19.1796L23.3314 23.3146Z" fill="white"/>
</svg>
